<?xml version="1.0" standalone="no"?>
<!DOCTYPE svg PUBLIC "-//W3C//DTD SVG 20010904//EN"
 "http://www.w3.org/TR/2001/REC-SVG-20010904/DTD/svg10.dtd">
<svg version="1.0" xmlns="http://www.w3.org/2000/svg"
 width="512.000000pt" height="512.000000pt" viewBox="0 0 512.000000 512.000000"
 preserveAspectRatio="xMidYMid meet">
<metadata>
Created by potrace 1.14, written by Peter Selinger 2001-2017
</metadata>
<g transform="translate(0.000000,512.000000) scale(0.100000,-0.100000)"
fill="#000000" stroke="none">
<path d="M1794 4942 c-24 -20 -32 -39 -86 -187 -150 -414 -264 -797 -320
-1070 -26 -131 -31 -350 -9 -460 31 -160 96 -317 189 -460 41 -61 200 -232
257 -275 93 -70 223 -141 325 -176 65 -22 65 -22 102 -96 70 -138 69 -122 66
-834 l-3 -639 -27 -45 c-22 -39 -94 -118 -140 -156 -54 -43 -182 -120 -283
-168 -66 -32 -131 -63 -144 -69 -51 -25 -51 -109 -1 -134 19 -10 208 -13 838
-13 708 0 817 2 842 15 56 29 50 107 -11 137 -19 9 -83 41 -143 69 -197 94
-352 213 -413 317 l-28 47 -3 640 c-3 710 -5 687 64 830 l33 70 96 38 c471
186 774 639 760 1137 -2 69 -6 136 -10 150 -3 14 -8 43 -11 65 -8 52 -84 353
-118 470 -42 140 -151 464 -213 633 -48 130 -61 155 -84 168 -24 12 -143 14
-766 14 -684 0 -739 -2 -759 -18z"/>
</g>
</svg>
